<svg width="183" height="61" viewBox="0 0 183 61" fill="none" xmlns="http://www.w3.org/2000/svg">
<g clip-path="url(#clip0_4188_19208)">
<path d="M168.343 0.000198151H14.5739C14.0134 0.000198151 13.4596 0.000198151 12.9006 0.00324662C12.4326 0.0062951 11.9684 0.0151509 11.496 0.0226044C10.4696 0.0346487 9.44563 0.124692 8.43297 0.291952C7.42175 0.462854 6.44219 0.785052 5.52745 1.24765C4.61382 1.71416 3.77902 2.32034 3.05332 3.04421C2.32381 3.76603 1.7157 4.60037 1.25239 5.51513C0.787797 6.42807 0.465648 7.40637 0.297067 8.41624C0.126884 9.42484 0.0353062 10.4451 0.023157 11.4678C0.00897239 11.9351 0.00747444 12.404 0 12.8714V48.103C0.00747444 48.5763 0.00897239 49.0347 0.023157 49.5082C0.03531 50.5308 0.126887 51.551 0.297067 52.5595C0.465182 53.57 0.787351 54.5489 1.25239 55.4621C1.71549 56.374 2.32368 57.2049 3.05332 57.9227C3.77627 58.6498 4.61161 59.2564 5.52745 59.7193C6.44219 60.1832 7.42163 60.5073 8.43297 60.6808C9.4458 60.8468 10.4697 60.9368 11.496 60.9503C11.9684 60.9607 12.4326 60.9666 12.9006 60.9666C13.4596 60.9697 14.0134 60.9697 14.5739 60.9697H168.343C168.892 60.9697 169.45 60.9697 170 60.9666C170.465 60.9666 170.943 60.9607 171.409 60.9503C172.433 60.9375 173.455 60.8475 174.466 60.6808C175.48 60.5061 176.463 60.182 177.383 59.7193C178.298 59.2561 179.132 58.6496 179.854 57.9227C180.582 57.2021 181.192 56.3717 181.661 55.4621C182.122 54.5482 182.441 53.5694 182.607 52.5595C182.777 51.5509 182.872 50.5309 182.891 49.5082C182.896 49.0347 182.896 48.5763 182.896 48.103C182.908 47.5492 182.908 46.9985 182.908 46.4358V14.5355C182.908 13.9773 182.908 13.4236 182.896 12.8714C182.896 12.404 182.896 11.9351 182.891 11.4677C182.872 10.4449 182.777 9.42491 182.607 8.41618C182.441 7.40689 182.122 6.42867 181.661 5.51507C180.717 3.68153 179.221 2.18904 177.383 1.24751C176.463 0.786045 175.48 0.463933 174.466 0.291815C173.455 0.123818 172.433 0.0337432 171.409 0.022391C170.943 0.0149528 170.465 0.00602074 170 0.00304847C169.45 0 168.892 0 168.343 0V0.000198151Z" fill="#282828"/>
<path d="M12.9076 59.6356C12.4419 59.6356 11.9875 59.6296 11.5254 59.6192C10.5682 59.6068 9.61328 59.5237 8.6684 59.3706C7.78735 59.2193 6.93385 58.9379 6.13605 58.5355C5.34556 58.1365 4.62458 57.6133 4.00071 56.986C3.36781 56.366 2.8409 55.647 2.44084 54.8574C2.03638 54.0626 1.75647 53.2107 1.61086 52.3314C1.45361 51.3866 1.36854 50.4312 1.35636 49.4735C1.34667 49.152 1.33398 48.0817 1.33398 48.0817V12.871C1.33398 12.871 1.3475 11.8171 1.35644 11.5075C1.36809 10.5513 1.45268 9.59738 1.60945 8.65399C1.75533 7.77225 2.03546 6.91792 2.44014 6.12056C2.83872 5.33148 3.36271 4.61192 3.9918 3.98975C4.62018 3.36168 5.34347 2.83579 6.1353 2.43127C6.93126 2.03021 7.78315 1.75073 8.66242 1.60217C9.6104 1.44756 10.5687 1.36397 11.5292 1.35211L12.9084 1.3335H169.992L171.387 1.35285C172.339 1.36413 173.289 1.44698 174.228 1.60068C175.116 1.7511 175.977 2.03253 176.782 2.43573C178.368 3.25096 179.659 4.54074 180.473 6.12428C180.872 6.91613 181.147 7.7635 181.291 8.63762C181.45 9.58875 181.539 10.5502 181.557 11.5142C181.562 11.9458 181.562 12.4095 181.562 12.871C181.574 13.4426 181.574 13.9866 181.574 14.5351V46.4354C181.574 46.9891 181.574 47.5295 181.562 48.0742C181.562 48.5699 181.562 49.024 181.556 49.4913C181.538 50.4381 181.45 51.3824 181.294 52.3165C181.152 53.2022 180.873 54.0607 180.469 54.8619C180.066 55.643 179.542 56.3558 178.917 56.9741C178.292 57.6048 177.57 58.1311 176.778 58.5326C175.975 58.9381 175.115 59.2206 174.228 59.3706C173.283 59.5245 172.328 59.6076 171.371 59.6192C170.923 59.6296 170.454 59.6356 169.999 59.6356L168.342 59.6386L12.9076 59.6356Z" fill="black"/>
<path d="M37.8582 30.9442C37.8746 29.672 38.2135 28.4246 38.8433 27.318C39.4731 26.2115 40.3733 25.2818 41.4602 24.6155C40.7697 23.6321 39.8588 22.8228 38.7998 22.2519C37.7408 21.681 36.5629 21.3642 35.3597 21.3267C32.7929 21.058 30.3046 22.8583 28.9966 22.8583C27.6633 22.8583 25.6495 21.3533 23.4809 21.3978C22.0783 21.443 20.7112 21.8498 19.5131 22.5784C18.3149 23.3071 17.3264 24.3329 16.644 25.5557C13.6879 30.6595 15.8929 38.1604 18.7246 42.2859C20.1414 44.306 21.7972 46.5626 23.9638 46.4826C26.084 46.3949 26.8758 45.1344 29.435 45.1344C31.9704 45.1344 32.7133 46.4826 34.9239 46.4317C37.1989 46.3949 38.6323 44.4026 39.9993 42.3633C41.0173 40.9239 41.8006 39.333 42.3203 37.6496C40.9986 37.0921 39.8706 36.159 39.0771 34.9666C38.2837 33.7742 37.8597 32.3752 37.8582 30.9442Z" fill="white"/>
<path d="M33.6851 18.613C34.9255 17.1281 35.5366 15.2195 35.3886 13.2925C33.4935 13.491 31.743 14.3942 30.4858 15.8221C29.8711 16.5197 29.4003 17.3313 29.1004 18.2104C28.8004 19.0895 28.6771 20.019 28.7376 20.9457C29.6855 20.9554 30.6233 20.7505 31.4802 20.3465C32.3372 19.9424 33.0911 19.3497 33.6851 18.613Z" fill="white"/>
<path d="M64.6601 41.3661H57.425L55.6875 46.4822H52.623L59.476 27.5542H62.6599L69.5128 46.4822H66.3961L64.6601 41.3661ZM58.1744 39.0054H63.9093L61.0822 30.7024H61.0031L58.1744 39.0054Z" fill="white"/>
<path d="M84.3131 39.5824C84.3131 43.8708 82.0113 46.626 78.5378 46.626C77.6579 46.6719 76.7829 46.4698 76.0128 46.0428C75.2428 45.6158 74.6088 44.9812 74.1837 44.2116H74.1179V51.0469H71.2773V32.6816H74.0269V34.9769H74.0792C74.5239 34.211 75.1685 33.5797 75.9444 33.1501C76.7204 32.7205 77.5986 32.5087 78.4856 32.5372C81.9978 32.5372 84.3131 35.3059 84.3131 39.5824ZM81.3934 39.5824C81.3934 36.7884 79.9454 34.9516 77.7363 34.9516C75.5659 34.9516 74.106 36.8271 74.106 39.5824C74.106 42.3629 75.5659 44.225 77.7363 44.225C79.9454 44.225 81.3934 42.4016 81.3934 39.5824Z" fill="white"/>
<path d="M99.5435 39.5823C99.5435 43.8708 97.2418 46.626 93.7683 46.626C92.8884 46.6719 92.0133 46.4698 91.2433 46.0428C90.4732 45.6158 89.8393 44.9811 89.4141 44.2116H89.3484V51.0468H86.5078V32.6816H89.2573V34.9769H89.3096C89.7543 34.211 90.3989 33.5797 91.1749 33.1501C91.9508 32.7205 92.829 32.5087 93.716 32.5372C97.2284 32.5372 99.5435 35.3058 99.5435 39.5823ZM96.6238 39.5823C96.6238 36.7884 95.1759 34.9516 92.9667 34.9516C90.7964 34.9516 89.3365 36.8271 89.3365 39.5823C89.3365 42.3629 90.7964 44.225 92.9667 44.225C95.1759 44.225 96.6238 42.4016 96.6238 39.5823H96.6238Z" fill="white"/>
<path d="M109.611 41.2085C109.821 43.0856 111.65 44.318 114.149 44.318C116.543 44.318 118.266 43.0855 118.266 41.393C118.266 39.9239 117.227 39.0442 114.767 38.4413L112.307 37.8504C108.821 37.0109 107.203 35.3854 107.203 32.7478C107.203 29.482 110.057 27.2388 114.11 27.2388C118.121 27.2388 120.87 29.482 120.963 32.7478H118.095C117.924 30.8588 116.358 29.7186 114.07 29.7186C111.781 29.7186 110.215 30.8722 110.215 32.5513C110.215 33.8895 111.216 34.6769 113.662 35.2797L115.753 35.7917C119.648 36.7101 121.266 38.2701 121.266 41.0387C121.266 44.5799 118.437 46.7978 113.938 46.7978C109.729 46.7978 106.887 44.632 106.703 41.2084L109.611 41.2085Z" fill="white"/>
<path d="M127.397 29.417V32.6828H130.029V34.926H127.397V42.5338C127.397 43.7156 127.924 44.2664 129.081 44.2664C129.394 44.261 129.706 44.2391 130.016 44.2009V46.4306C129.495 46.5276 128.967 46.5714 128.438 46.5616C125.636 46.5616 124.543 45.5122 124.543 42.8359V34.926H122.531V32.6828H124.543V29.417H127.397Z" fill="white"/>
<path d="M131.551 39.5826C131.551 35.2407 134.115 32.5122 138.114 32.5122C142.126 32.5122 144.679 35.2406 144.679 39.5826C144.679 43.9365 142.14 46.6531 138.114 46.6531C134.09 46.6531 131.551 43.9365 131.551 39.5826ZM141.785 39.5826C141.785 36.6041 140.416 34.8462 138.114 34.8462C135.812 34.8462 134.445 36.6175 134.445 39.5826C134.445 42.5731 135.812 44.3176 138.114 44.3176C140.416 44.3176 141.785 42.5731 141.785 39.5826H141.785Z" fill="white"/>
<path d="M147.021 32.6829H149.731V35.0318H149.796C149.98 34.2982 150.411 33.6499 151.017 33.1958C151.623 32.7418 152.368 32.5097 153.125 32.5385C153.453 32.5374 153.779 32.5728 154.098 32.6442V35.2938C153.685 35.1678 153.254 35.11 152.822 35.1226C152.409 35.1059 151.998 35.1785 151.616 35.3353C151.234 35.4921 150.891 35.7295 150.61 36.0311C150.328 36.3327 150.116 36.6915 149.987 37.0827C149.858 37.4739 149.815 37.8884 149.862 38.2976V46.4829H147.021L147.021 32.6829Z" fill="white"/>
<path d="M167.196 42.4287C166.814 44.9338 164.368 46.6531 161.237 46.6531C157.212 46.6531 154.713 43.9633 154.713 39.6481C154.713 35.3195 157.225 32.5122 161.118 32.5122C164.947 32.5122 167.355 35.135 167.355 39.3192V40.2897H157.58V40.4609C157.535 40.9687 157.599 41.4804 157.767 41.9618C157.936 42.4432 158.205 42.8834 158.557 43.2531C158.909 43.6228 159.336 43.9135 159.81 44.1061C160.283 44.2986 160.792 44.3884 161.303 44.3697C161.974 44.4324 162.648 44.2774 163.224 43.9277C163.8 43.5779 164.247 43.0522 164.499 42.4287L167.196 42.4287ZM157.594 38.31H164.512C164.538 37.8533 164.468 37.3963 164.308 36.9677C164.148 36.5391 163.901 36.148 163.583 35.8192C163.264 35.4903 162.88 35.2307 162.456 35.0566C162.032 34.8825 161.577 34.7977 161.118 34.8075C160.655 34.8047 160.197 34.8934 159.769 35.0683C159.341 35.2432 158.952 35.5009 158.624 35.8265C158.296 36.1521 158.037 36.5392 157.86 36.9655C157.683 37.3917 157.593 37.8487 157.594 38.31V38.31Z" fill="white"/>
<path d="M56.1553 17.1526H57.3749C57.5848 17.1787 57.7979 17.1611 58.0007 17.101C58.2034 17.0409 58.3915 16.9395 58.5531 16.8033C58.7147 16.6671 58.8462 16.499 58.9393 16.3096C59.0325 16.1202 59.0853 15.9136 59.0945 15.7028C59.0945 14.8641 58.4616 14.3222 57.3883 14.3222C57.1732 14.2923 56.9543 14.3056 56.7445 14.3614C56.5346 14.4172 56.3381 14.5143 56.1666 14.6471C55.995 14.7799 55.8519 14.9456 55.7456 15.1345C55.6393 15.3233 55.5721 15.5315 55.5478 15.7467H54.2088C54.2319 15.3561 54.3353 14.9743 54.5127 14.6253C54.6901 14.2762 54.9377 13.9673 55.24 13.7178C55.5423 13.4682 55.8929 13.2834 56.27 13.1749C56.647 13.0663 57.0424 13.0363 57.4316 13.0868C59.2273 13.0868 60.4917 14.0893 60.4917 15.5324C60.4959 16.0158 60.3337 16.4861 60.0321 16.8647C59.7306 17.2433 59.3079 17.5073 58.8347 17.6126V17.7198C59.3957 17.7446 59.924 17.9898 60.3041 18.402C60.6843 18.8141 60.8853 19.3595 60.8633 19.919C60.8218 20.3213 60.7002 20.7112 60.5056 21.0659C60.311 21.4207 60.0474 21.7332 59.7301 21.985C59.4128 22.2368 59.0484 22.423 58.658 22.5325C58.2677 22.642 57.8594 22.6728 57.457 22.6229C57.0537 22.6777 56.6436 22.651 56.2509 22.5444C55.8582 22.4378 55.4911 22.2534 55.1714 22.0022C54.8517 21.7511 54.586 21.4383 54.3901 21.0826C54.1942 20.7269 54.0722 20.3355 54.0312 19.9317H55.3911C55.4732 20.8017 56.2748 21.363 57.457 21.363C58.6392 21.363 59.4109 20.7326 59.4109 19.8439C59.4109 18.9426 58.684 18.3874 57.4137 18.3874H56.1553V17.1526Z" fill="white"/>
<path d="M62.4062 20.4612C62.4062 19.2258 63.3302 18.5135 64.9662 18.4123L66.8306 18.3051V17.7127C66.8306 16.9878 66.3514 16.5784 65.4215 16.5784C64.6632 16.5784 64.1393 16.8561 63.987 17.3413H62.6719C62.8108 16.1624 63.9243 15.4062 65.4857 15.4062C67.2112 15.4062 68.1845 16.2629 68.1845 17.7127V22.4023H66.8754V21.4377H66.7679C66.5498 21.7837 66.2434 22.0657 65.8802 22.2551C65.517 22.4444 65.1099 22.5342 64.7005 22.5153C64.4116 22.5453 64.1195 22.5146 63.8433 22.4251C63.567 22.3356 63.3125 22.1894 63.0964 21.9959C62.8802 21.8023 62.7071 21.5658 62.5883 21.3015C62.4694 21.0371 62.4074 20.7509 62.4062 20.4612ZM66.8306 19.8747V19.3009L65.1498 19.4081C64.2019 19.4714 63.772 19.7929 63.772 20.398C63.772 21.0157 64.3094 21.3752 65.0483 21.3752C65.2648 21.397 65.4835 21.3752 65.6914 21.3111C65.8993 21.2469 66.0921 21.1417 66.2584 21.0017C66.4247 20.8618 66.5611 20.6898 66.6594 20.4962C66.7576 20.3026 66.8159 20.0913 66.8306 19.8747Z" fill="white"/>
<path d="M71.7919 16.6788V22.4021H70.4336V15.5386H74.9655V16.6787L71.7919 16.6788Z" fill="white"/>
<path d="M83.1971 18.9677C83.1971 21.1483 82.091 22.5155 80.3535 22.5155C79.927 22.5446 79.501 22.4515 79.1258 22.2473C78.7505 22.043 78.4416 21.7361 78.2354 21.3627H78.1279V24.6843H76.7695V15.5389H78.0771V16.6732H78.1786C78.3886 16.2867 78.7015 15.9656 79.0829 15.7453C79.4644 15.5251 79.8994 15.4142 80.3401 15.425C82.091 15.425 83.1971 16.7862 83.1971 18.9677ZM81.7999 18.9677C81.7999 17.5178 81.1118 16.6419 79.9609 16.6419C78.8176 16.6419 78.1025 17.5364 78.1025 18.9736C78.1025 20.4041 78.8175 21.2994 79.9549 21.2994C81.1118 21.2994 81.7999 20.4234 81.7999 18.9677Z" fill="white"/>
<path d="M85.0044 24.8604V23.6941C85.1513 23.7128 85.2995 23.7212 85.4476 23.7194C85.737 23.7408 86.0241 23.6549 86.2539 23.4781C86.4837 23.3013 86.6399 23.0462 86.6925 22.7616L86.794 22.4274L84.3027 15.5386H85.782L87.5076 20.9902H87.6151L89.3347 15.5386H90.7751L88.2092 22.6857C87.6211 24.3558 86.9703 24.8917 85.5671 24.8917C85.4537 24.8916 85.1312 24.879 85.0044 24.8604Z" fill="white"/>
<path d="M91.834 20.4546H93.1864C93.3192 21.0597 93.888 21.3752 94.6835 21.3752C95.5881 21.3752 96.1434 20.9778 96.1434 20.3601C96.1434 19.6984 95.6448 19.3829 94.6835 19.3829H93.6536V18.3305H94.6656C95.4866 18.3305 95.9046 18.0157 95.9046 17.4418C95.9046 16.938 95.5 16.5532 94.6656 16.5532C93.9058 16.5532 93.3506 16.8747 93.2624 17.4166H91.9534C92.0513 16.794 92.3903 16.2346 92.8975 15.8586C93.4047 15.4827 94.0396 15.3203 94.6656 15.4063C96.3016 15.4063 97.2375 16.1439 97.2375 17.3034C97.2452 17.6263 97.1414 17.9421 96.9436 18.1978C96.7458 18.4536 96.466 18.6339 96.1508 18.7086V18.8158C96.526 18.864 96.8704 19.0479 97.1186 19.3326C97.3667 19.6173 97.5015 19.9829 97.4973 20.3601C97.4973 21.6648 96.3837 22.5281 94.6835 22.5281C93.1804 22.5281 91.9594 21.8411 91.834 20.4546Z" fill="white"/>
<path d="M99.4551 22.4021V15.5386H100.801V20.2594H100.909L104.081 15.5386H105.427V22.4021H104.081V17.656H103.979L100.801 22.4021L99.4551 22.4021Z" fill="white"/>
<path d="M112.843 16.6787H110.676V22.402H109.316V16.6787H107.148V15.5386H112.843V16.6787Z" fill="white"/>
<path d="M120.163 20.5492C119.978 21.1764 119.578 21.7189 119.033 22.0819C118.487 22.4448 117.831 22.6051 117.179 22.5349C116.726 22.5468 116.275 22.4602 115.859 22.281C115.442 22.1019 115.07 21.8345 114.767 21.4974C114.465 21.1604 114.24 20.7617 114.107 20.3291C113.975 19.8965 113.938 19.4403 114 18.9922C113.94 18.5427 113.977 18.0855 114.109 17.6516C114.241 17.2177 114.465 16.8172 114.766 16.4772C115.067 16.1372 115.438 15.8656 115.853 15.6809C116.268 15.4961 116.719 15.4025 117.174 15.4064C119.089 15.4064 120.245 16.7111 120.245 18.8664V19.339H115.385V19.415C115.364 19.6669 115.395 19.9205 115.478 20.1595C115.561 20.3986 115.692 20.6177 115.865 20.8029C116.038 20.9881 116.247 21.1352 116.48 21.2348C116.713 21.3344 116.965 21.3843 117.218 21.3812C117.543 21.4199 117.872 21.3615 118.163 21.2133C118.455 21.0652 118.695 20.834 118.854 20.5491L120.163 20.5492ZM115.385 18.3373H118.86C118.877 18.107 118.846 17.8757 118.768 17.6583C118.691 17.4408 118.568 17.242 118.409 17.0746C118.249 16.9071 118.056 16.7748 117.843 16.686C117.629 16.5973 117.399 16.5541 117.168 16.5592C116.933 16.556 116.699 16.5999 116.482 16.6881C116.264 16.7763 116.066 16.9072 115.9 17.073C115.734 17.2387 115.603 17.436 115.514 17.6531C115.426 17.8703 115.382 18.1029 115.385 18.3373H115.385Z" fill="white"/>
<path d="M125.92 15.5386H129.023C130.37 15.5386 131.159 16.2188 131.159 17.2838C131.161 17.6218 131.047 17.9502 130.835 18.2141C130.624 18.478 130.328 18.6614 129.996 18.7336V18.8408C130.398 18.8661 130.775 19.0444 131.049 19.3389C131.323 19.6334 131.473 20.0215 131.468 20.4231C131.468 21.6206 130.565 22.4021 129.055 22.4021H125.92V15.5386ZM127.266 16.5783V18.3556H128.613C129.434 18.3556 129.826 18.0407 129.826 17.4602C129.826 16.9251 129.484 16.5783 128.764 16.5783L127.266 16.5783ZM127.266 19.3514V21.3624H128.877C129.68 21.3624 130.11 21.0089 130.11 20.3599C130.11 19.6729 129.623 19.3514 128.707 19.3514L127.266 19.3514Z" fill="white"/>
</g>
<defs>
<clipPath id="clip0_4188_19208">
<rect width="182.908" height="60.9695" fill="white"/>
</clipPath>
</defs>
</svg>
