<svg width="12" height="12" viewBox="0 0 12 12" fill="none" xmlns="http://www.w3.org/2000/svg">
<path d="M6.00058 8.5C5.87294 8.49936 5.74704 8.47031 5.63201 8.41496C5.51699 8.35961 5.41573 8.27935 5.33558 8.18L3.23058 5.63C3.10758 5.47648 3.03018 5.2915 3.00719 5.09613C2.98421 4.90077 3.01657 4.70287 3.10058 4.525C3.16872 4.37041 3.27992 4.23871 3.42089 4.14561C3.56187 4.05252 3.72666 4.00197 3.89558 4H8.10558C8.27451 4.00197 8.4393 4.05252 8.58027 4.14561C8.72125 4.23871 8.83244 4.37041 8.90058 4.525C8.9846 4.70287 9.01696 4.90077 8.99398 5.09613C8.97099 5.2915 8.89359 5.47648 8.77058 5.63L6.66558 8.18C6.58543 8.27935 6.48418 8.35961 6.36915 8.41496C6.25413 8.47031 6.12823 8.49936 6.00058 8.5Z" fill="#05141F"/>
</svg>
