<svg width="16" height="16" viewBox="0 0 16 16" fill="none" xmlns="http://www.w3.org/2000/svg">
<path d="M8.64667 1.72667C8.46601 1.57351 8.23685 1.48944 8 1.48944C7.76315 1.48944 7.53399 1.57351 7.35333 1.72667L2.35333 5.96867C2.24262 6.06253 2.15366 6.17937 2.09265 6.31108C2.03163 6.44278 2.00002 6.58618 2 6.73134V13C2 13.2652 2.10536 13.5196 2.29289 13.7071C2.48043 13.8946 2.73478 14 3 14H6.16667C6.29927 14 6.42645 13.9473 6.52022 13.8536C6.61399 13.7598 6.66667 13.6326 6.66667 13.5V9.33333H9.33333V13.5C9.33333 13.776 9.55733 14 9.83333 14H13C13.2652 14 13.5196 13.8946 13.7071 13.7071C13.8946 13.5196 14 13.2652 14 13V6.73134C14 6.58618 13.9684 6.44278 13.9074 6.31108C13.8463 6.17937 13.7574 6.06253 13.6467 5.96867L8.64667 1.72667Z" fill="#40BF40"/>
</svg>
