<svg width="20" height="20" viewBox="0 0 20 20" fill="none" xmlns="http://www.w3.org/2000/svg">
<g clip-path="url(#clip0_4711_11297)">
<path d="M17.5026 13.4868V5.00016C17.5026 4.55813 17.327 4.13421 17.0145 3.82165C16.7019 3.50909 16.278 3.3335 15.8359 3.3335H11.5259L12.8476 2.01183L11.6693 0.833496L9.51428 2.9885L8.33594 4.16683L9.51428 5.34516L11.6693 7.50016L12.8476 6.32183L11.5259 5.00016H15.8359V13.4868C15.2799 13.6834 14.8113 14.0702 14.5129 14.5789C14.2145 15.0876 14.1056 15.6854 14.2053 16.2666C14.305 16.8479 14.607 17.3751 15.0579 17.7552C15.5088 18.1354 16.0795 18.3438 16.6693 18.3438C17.259 18.3438 17.8298 18.1354 18.2807 17.7552C18.7316 17.3751 19.0335 16.8479 19.1333 16.2666C19.233 15.6854 19.124 15.0876 18.8256 14.5789C18.5272 14.0702 18.0586 13.6834 17.5026 13.4868ZM10.4909 14.6552L8.33594 12.5002L7.15761 13.6785L8.47928 15.0002H4.16928V6.5135C4.72529 6.31692 5.1939 5.9301 5.4923 5.42143C5.7907 4.91275 5.89967 4.31496 5.79994 3.73372C5.70021 3.15247 5.39822 2.62519 4.94733 2.24507C4.49644 1.86496 3.92568 1.65647 3.33594 1.65647C2.7462 1.65647 2.17545 1.86496 1.72456 2.24507C1.27367 2.62519 0.971672 3.15247 0.871946 3.73372C0.77222 4.31496 0.881185 4.91275 1.17958 5.42143C1.47798 5.9301 1.9466 6.31692 2.50261 6.5135V15.0002C2.50261 15.4422 2.6782 15.8661 2.99076 16.1787C3.30333 16.4912 3.72725 16.6668 4.16928 16.6668H8.47928L7.15761 17.9885L8.33594 19.1668L10.4909 17.0118L11.6693 15.8335L10.4909 14.6552Z" fill="#05141F"/>
</g>
<defs>
<clipPath id="clip0_4711_11297">
<rect width="20" height="20" fill="white"/>
</clipPath>
</defs>
</svg>
