<svg width="133" height="32" viewBox="0 0 133 32" fill="none" xmlns="http://www.w3.org/2000/svg">
<g clip-path="url(#clip0_4711_11243)">
<path d="M2.75709 4.20233V5.64758H12.7626V8.4269H2.75709V11.3619C2.75709 12.1401 3.40189 12.7849 4.1801 12.7849H15.542V15.5642H4.1801C1.8677 15.562 0 13.672 0 11.3596V4.20233C0 1.88994 1.8677 0 4.1801 0H15.542V2.77932H4.1801C3.40189 2.77932 2.75709 3.42412 2.75709 4.20233Z" fill="#76BC33"/>
<path d="M32.6372 0L31.2142 2.77932L24.6995 15.5642L18.1847 2.77932L16.7617 0H19.8746L21.2976 2.77932L24.6995 9.44969L28.1014 2.77932L29.5244 0H32.6372Z" fill="black"/>
<path d="M47.5544 7.7821C47.5544 12.0734 44.0636 15.5642 39.7723 15.5642C35.4811 15.5642 31.9902 12.0734 31.9902 7.7821C31.9902 3.49083 35.4811 0 39.7723 0C44.0636 0 47.5544 3.49083 47.5544 7.7821ZM44.7751 7.7821C44.7751 5.02501 42.5294 2.77932 39.7723 2.77932C37.0152 2.77932 34.7696 5.02501 34.7696 7.7821C34.7696 10.5392 37.0152 12.7849 39.7723 12.7849C42.5294 12.7827 44.7751 10.5392 44.7751 7.7821Z" fill="black"/>
<path d="M61.4973 12.8049V15.5842H53.604C52.8258 15.5842 52.0921 15.4063 51.4251 15.0728C50.4467 14.5837 49.6463 13.7832 49.1794 12.8049C48.8458 12.1379 48.668 11.4041 48.668 10.6259V0.0222359H51.4473V10.8949C51.5807 11.8733 52.3589 12.6515 53.3372 12.7849L61.4973 12.8049Z" fill="black"/>
<path d="M77.0134 0V7.7821C77.0134 12.0734 73.5226 15.5642 69.2313 15.5642C64.94 15.5642 61.4492 12.0734 61.4492 7.7821V0H64.2285V7.7821C64.2285 10.5392 66.4742 12.7849 69.2313 12.7849C71.9884 12.7849 74.2341 10.5392 74.2341 7.7821V0H77.0134Z" fill="black"/>
<path d="M94.2236 0.0222359V2.80156H87.8423V15.5842H85.063V2.80156H78.6816V0.0222359H94.2236Z" fill="black"/>
<path d="M95.9141 15.562V0H98.6934V15.562H95.9141Z" fill="black"/>
<path d="M115.367 7.7821C115.367 12.0734 111.876 15.5642 107.585 15.5642C103.294 15.5642 99.8027 12.0734 99.8027 7.7821C99.8027 3.49083 103.294 0 107.585 0C111.876 0 115.367 3.49083 115.367 7.7821ZM112.588 7.7821C112.588 5.02501 110.342 2.77932 107.585 2.77932C104.828 2.77932 102.582 5.02501 102.582 7.7821C102.582 10.5392 104.828 12.7849 107.585 12.7849C110.342 12.7827 112.588 10.5392 112.588 7.7821Z" fill="black"/>
<path d="M132.041 0.0222346V15.5842L129.261 13.4497L119.256 5.7343V15.5842H116.477V0.0667037L119.256 2.20122L129.261 9.91662V0L132.041 0.0222346Z" fill="black"/>
<path d="M34.9488 29.1295L32.0672 24.9205V31.8577H31.2578V23.522H32.0382L35.2245 28.1957L38.4107 23.522H39.1911V31.8577H38.3818V24.9205L35.5002 29.1295H34.9488Z" fill="black"/>
<path d="M52.9436 27.6887C52.9436 30.119 51.0559 32 48.6212 32C46.1865 32 44.2988 30.119 44.2988 27.6887C44.2988 25.2585 46.1865 23.3774 48.6212 23.3774C51.0559 23.3774 52.9436 25.2585 52.9436 27.6887ZM52.0987 27.6887C52.0987 25.7009 50.569 24.1156 48.6212 24.1156C46.6735 24.1156 45.1437 25.6987 45.1437 27.6887C45.1437 29.6787 46.6735 31.2618 48.6212 31.2618C50.569 31.2618 52.0987 29.6765 52.0987 27.6887Z" fill="black"/>
<path d="M59.4952 24.2468H57.0605V23.5197H62.7637V24.2468H60.329V31.8555H59.4952V24.2468Z" fill="black"/>
<path d="M75.6175 27.6887C75.6175 30.119 73.7297 32 71.2951 32C68.8604 32 66.9727 30.119 66.9727 27.6887C66.9727 25.2585 68.8604 23.3774 71.2951 23.3774C73.7297 23.3774 75.6175 25.2585 75.6175 27.6887ZM74.7725 27.6887C74.7725 25.7009 73.2428 24.1156 71.2951 24.1156C69.3473 24.1156 67.8176 25.6987 67.8176 27.6887C67.8176 29.6787 69.3473 31.2618 71.2951 31.2618C73.2428 31.2618 74.7725 29.6765 74.7725 27.6887Z" fill="black"/>
<path d="M81.5623 28.5937V31.8555H80.7285V23.5197H83.2477C84.9798 23.5197 86.0937 24.5203 86.0937 26.0567C86.0937 27.3974 85.2355 28.3246 83.8792 28.5403L86.2316 31.8577H85.3022L82.9787 28.5937H81.5623ZM83.2166 24.2468H81.5623V27.8666H83.2166C84.4728 27.8666 85.2466 27.1529 85.2466 26.0567C85.2466 24.9605 84.4728 24.2468 83.2166 24.2468Z" fill="black"/>
<path d="M91.5144 30.0878C92.0569 30.7371 92.8951 31.2618 93.8001 31.2618C94.9963 31.2618 95.8612 30.6304 95.8612 29.7009C95.8612 28.8382 95.212 28.2135 93.7178 27.9022C92.0391 27.5509 91.1453 26.7349 91.1453 25.5742C91.1453 24.2935 92.1925 23.3774 93.7178 23.3774C94.814 23.3774 95.6344 23.8066 96.2659 24.438L95.7656 25.0406C95.2186 24.5114 94.5694 24.1178 93.7645 24.1178C92.7039 24.1178 91.9902 24.7137 91.9902 25.5164C91.9902 26.368 92.7284 26.915 94.0558 27.2085C95.9012 27.6198 96.7061 28.4536 96.7061 29.6921C96.7061 31.0261 95.5811 32.0022 93.8423 32.0022C92.6861 32.0022 91.6144 31.4553 90.9785 30.6681L91.5144 30.0878Z" fill="black"/>
</g>
<defs>
<clipPath id="clip0_4711_11243">
<rect width="132.04" height="32" fill="white"/>
</clipPath>
</defs>
</svg>
