<svg width="20" height="20" viewBox="0 0 20 20" fill="none" xmlns="http://www.w3.org/2000/svg">
<g clip-path="url(#clip0_947_34716)">
<path d="M17.5007 13.4867V5.00004C17.5007 4.55801 17.3251 4.13409 17.0125 3.82153C16.6999 3.50897 16.276 3.33337 15.834 3.33337H11.524L12.8457 2.01171L11.6673 0.833374L9.51232 2.98837L8.33399 4.16671L9.51232 5.34504L11.6673 7.50004L12.8457 6.32171L11.524 5.00004H15.834V13.4867C15.278 13.6833 14.8094 14.0701 14.511 14.5788C14.2126 15.0874 14.1036 15.6852 14.2033 16.2665C14.3031 16.8477 14.605 17.375 15.0559 17.7551C15.5068 18.1352 16.0776 18.3437 16.6673 18.3437C17.2571 18.3437 17.8278 18.1352 18.2787 17.7551C18.7296 17.375 19.0316 16.8477 19.1313 16.2665C19.231 15.6852 19.1221 15.0874 18.8237 14.5788C18.5253 14.0701 18.0567 13.6833 17.5007 13.4867ZM10.489 14.655L8.33399 12.5L7.15566 13.6784L8.47732 15H4.16732V6.51337C4.72333 6.31679 5.19195 5.92998 5.49035 5.42131C5.78875 4.91263 5.89771 4.31484 5.79799 3.7336C5.69826 3.15235 5.39626 2.62507 4.94537 2.24495C4.49448 1.86483 3.92373 1.65635 3.33399 1.65635C2.74425 1.65635 2.1735 1.86483 1.72261 2.24495C1.27172 2.62507 0.969719 3.15235 0.869993 3.7336C0.770267 4.31484 0.879232 4.91263 1.17763 5.42131C1.47603 5.92998 1.94464 6.31679 2.50066 6.51337V15C2.50066 15.4421 2.67625 15.866 2.98881 16.1785C3.30137 16.4911 3.7253 16.6667 4.16732 16.6667H8.47732L7.15566 17.9884L8.33399 19.1667L10.489 17.0117L11.6673 15.8334L10.489 14.655Z" fill="white"/>
</g>
<defs>
<clipPath id="clip0_947_34716">
<rect width="20" height="20" fill="white"/>
</clipPath>
</defs>
</svg>
