<svg width="207" height="61" viewBox="0 0 207 61" fill="none" xmlns="http://www.w3.org/2000/svg">
<g clip-path="url(#clip0_4188_19209)">
<path d="M199.059 0H8.52939C4.32032 0 0.908203 3.41212 0.908203 7.62118V53.3483C0.908203 57.5574 4.32032 60.9695 8.52939 60.9695H199.059C203.268 60.9695 206.68 57.5574 206.68 53.3483V7.62118C206.68 3.41212 203.268 0 199.059 0Z" fill="black"/>
<path d="M199.059 1.21939C200.757 1.21939 202.385 1.89386 203.586 3.09443C204.786 4.295 205.461 5.92332 205.461 7.62118V53.3483C205.461 55.0462 204.786 56.6745 203.586 57.875C202.385 59.0756 200.757 59.7501 199.059 59.7501H8.52939C6.83153 59.7501 5.2032 59.0756 4.00263 57.875C2.80207 56.6745 2.12759 55.0462 2.12759 53.3483V7.62118C2.12759 5.92332 2.80207 4.295 4.00263 3.09443C5.2032 1.89386 6.83153 1.21939 8.52939 1.21939H199.059ZM199.059 0H8.52939C6.50812 0 4.56965 0.802944 3.1404 2.23219C1.71115 3.66144 0.908203 5.59992 0.908203 7.62118V53.3483C0.908203 55.3696 1.71115 57.308 3.1404 58.7373C4.56965 60.1665 6.50812 60.9695 8.52939 60.9695H199.059C201.08 60.9695 203.019 60.1665 204.448 58.7373C205.877 57.308 206.68 55.3696 206.68 53.3483V7.62118C206.68 5.59992 205.877 3.66144 204.448 2.23219C203.019 0.802944 201.08 0 199.059 0Z" fill="#282828"/>
<path d="M104.77 33.1525C103.486 33.1555 102.232 33.5393 101.166 34.2553C100.099 34.9713 99.2696 35.9873 98.7809 37.175C98.2922 38.3626 98.1667 39.6685 98.4202 40.9274C98.6737 42.1864 99.2948 43.3419 100.205 44.2479C101.115 45.1539 102.274 45.7696 103.534 46.0172C104.794 46.2647 106.099 46.1331 107.285 45.6389C108.47 45.1446 109.482 44.31 110.193 43.2405C110.904 42.171 111.282 40.9147 111.279 39.6305C111.291 38.7738 111.131 37.9233 110.808 37.1298C110.485 36.3362 110.006 35.6157 109.398 35.0113C108.791 34.4069 108.068 33.9308 107.273 33.6115C106.478 33.2921 105.627 33.136 104.77 33.1525V33.1525ZM104.77 43.563C103.983 43.6181 103.198 43.4351 102.516 43.0378C101.834 42.6405 101.288 42.0473 100.948 41.3353C100.608 40.6233 100.489 39.8254 100.609 39.0454C100.728 38.2654 101.079 37.5394 101.617 36.9616C102.154 36.3839 102.853 35.9812 103.622 35.8058C104.392 35.6305 105.196 35.6907 105.931 35.9786C106.665 36.2664 107.296 36.7686 107.742 37.4199C108.187 38.0712 108.427 38.8414 108.429 39.6305C108.453 40.1305 108.377 40.6303 108.206 41.1005C108.034 41.5707 107.77 42.0018 107.429 42.3683C107.088 42.7348 106.677 43.0294 106.221 43.2345C105.764 43.4397 105.271 43.5514 104.77 43.563ZM90.5645 33.1525C89.2803 33.1555 88.0258 33.5393 86.9597 34.2553C85.8935 34.9713 85.0637 35.9873 84.575 37.175C84.0863 38.3626 83.9608 39.6685 84.2143 40.9274C84.4678 42.1864 85.0889 43.3419 85.9992 44.2479C86.9094 45.1539 88.0678 45.7696 89.328 46.0172C90.5881 46.2647 91.8934 46.1331 93.0787 45.6389C94.2641 45.1446 95.2762 44.31 95.9872 43.2405C96.6982 42.171 97.076 40.9147 97.073 39.6305C97.0855 38.7738 96.9254 37.9233 96.6023 37.1298C96.2792 36.3362 95.7998 35.6157 95.1925 35.0113C94.5852 34.4069 93.8626 33.9308 93.0675 33.6115C92.2724 33.2921 91.4212 33.136 90.5645 33.1525V33.1525ZM90.5645 43.563C89.7774 43.6181 88.9919 43.4351 88.3101 43.0378C87.6284 42.6405 87.0819 42.0473 86.7418 41.3353C86.4016 40.6233 86.2836 39.8254 86.4029 39.0454C86.5222 38.2654 86.8734 37.5394 87.4109 36.9616C87.9483 36.3839 88.6471 35.9812 89.4164 35.8058C90.1858 35.6305 90.9901 35.6907 91.7248 35.9786C92.4595 36.2664 93.0906 36.7686 93.5361 37.4199C93.9815 38.0712 94.2208 38.8414 94.2227 39.6305C94.2473 40.1305 94.1715 40.6303 93.9998 41.1005C93.8281 41.5707 93.564 42.0018 93.223 42.3683C92.8821 42.7348 92.4712 43.0294 92.0146 43.2345C91.558 43.4397 91.065 43.5514 90.5645 43.563ZM73.676 35.1492V37.8929H80.2607C80.1575 39.1851 79.6203 40.4045 78.7365 41.3529C78.0759 42.0259 77.2815 42.5527 76.4045 42.8993C75.5276 43.2458 74.5876 43.4045 73.6455 43.3649C71.7051 43.3649 69.8442 42.5941 68.4721 41.222C67.1 39.8499 66.3292 37.989 66.3292 36.0485C66.3292 34.1081 67.1 32.2472 68.4721 30.8751C69.8442 29.503 71.7051 28.7322 73.6455 28.7322C75.5058 28.7045 77.302 29.411 78.645 30.6985L80.5808 28.7627C79.6723 27.8642 78.5937 27.156 77.408 26.6796C76.2224 26.2033 74.9536 25.9683 73.676 25.9886C72.3209 25.9358 70.9692 26.1572 69.7017 26.6394C68.4343 27.1216 67.2772 27.8547 66.2998 28.7947C65.3225 29.7348 64.545 30.8625 64.0139 32.1102C63.4827 33.358 63.209 34.7001 63.209 36.0562C63.209 37.4122 63.4827 38.7544 64.0139 40.0021C64.545 41.2499 65.3225 42.3776 66.2998 43.3176C67.2772 44.2577 68.4343 44.9908 69.7017 45.4729C70.9692 45.9551 72.3209 46.1765 73.676 46.1237C74.9799 46.1758 76.28 45.9515 77.491 45.4655C78.702 44.9795 79.7966 44.2429 80.7027 43.3039C82.3034 41.5456 83.1562 39.233 83.0805 36.8564C83.086 36.2844 83.0401 35.713 82.9434 35.1492H73.676ZM142.739 37.2832C142.342 36.1137 141.598 35.0925 140.608 34.3549C139.617 33.6173 138.425 33.1979 137.191 33.1525C136.357 33.1509 135.532 33.3203 134.766 33.6502C134.001 33.9802 133.311 34.4636 132.739 35.0708C132.168 35.6779 131.727 36.3958 131.444 37.1801C131.161 37.9644 131.042 38.7984 131.094 39.6305C131.081 41.0219 131.518 42.3802 132.341 43.5025C133.164 44.6247 134.327 45.4508 135.658 45.8572C136.989 46.2637 138.415 46.2287 139.725 45.7575C141.034 45.2863 142.155 44.4042 142.922 43.2429L140.712 41.7187C140.382 42.2679 139.915 42.7213 139.356 43.0342C138.798 43.347 138.167 43.5083 137.526 43.5021C136.866 43.5293 136.212 43.3561 135.652 43.0052C135.091 42.6543 134.65 42.142 134.386 41.5358L143.059 37.9538L142.739 37.2832ZM133.899 39.4476C133.868 38.9741 133.932 38.4993 134.087 38.0508C134.241 37.6023 134.484 37.1893 134.801 36.8358C135.117 36.4824 135.501 36.1957 135.93 35.9924C136.359 35.7892 136.824 35.6735 137.298 35.6522C137.789 35.6223 138.278 35.7379 138.703 35.9846C139.129 36.2314 139.473 36.5982 139.691 37.0393L133.899 39.4476ZM126.857 45.7274H129.707V26.6745H126.857V45.7274ZM122.192 34.6005H122.086C121.66 34.1156 121.134 33.7284 120.545 33.4653C119.956 33.2022 119.317 33.0695 118.671 33.0763C117.006 33.1571 115.435 33.8756 114.285 35.0831C113.134 36.2905 112.493 37.8942 112.493 39.5619C112.493 41.2296 113.134 42.8333 114.285 44.0408C115.435 45.2482 117.006 45.9668 118.671 46.0475C119.318 46.0605 119.959 45.9306 120.549 45.6671C121.139 45.4036 121.664 45.0131 122.086 44.5233H122.192V45.4531C122.192 47.9376 120.866 49.2637 118.732 49.2637C118.02 49.248 117.327 49.0209 116.744 48.6111C116.161 48.2013 115.712 47.6273 115.455 46.9621L112.986 47.9833C113.443 49.1299 114.236 50.111 115.262 50.7968C116.288 51.4827 117.498 51.841 118.732 51.8244C122.071 51.8244 124.829 49.8581 124.829 45.072V33.5336H122.192V34.6005ZM118.915 43.563C117.917 43.5008 116.979 43.0602 116.294 42.3309C115.609 41.6017 115.228 40.6387 115.228 39.6381C115.228 38.6375 115.609 37.6745 116.294 36.9453C116.979 36.2161 117.917 35.7755 118.915 35.7132C119.403 35.7343 119.882 35.8533 120.324 36.0632C120.765 36.2732 121.159 36.5697 121.483 36.9352C121.808 37.3006 122.055 37.7276 122.211 38.1906C122.367 38.6537 122.428 39.1433 122.391 39.6305C122.432 40.1193 122.374 40.6115 122.22 41.0772C122.066 41.543 121.819 41.9727 121.494 42.3403C121.169 42.7079 120.773 43.0058 120.33 43.2159C119.887 43.4261 119.406 43.5442 118.915 43.563V43.563ZM156.091 26.6745H149.263V45.7274H152.113V38.5026H156.091C156.904 38.5609 157.719 38.4513 158.488 38.1805C159.256 37.9098 159.96 37.4837 160.556 36.9288C161.152 36.3739 161.628 35.7021 161.953 34.9554C162.278 34.2087 162.446 33.403 162.446 32.5885C162.446 31.7741 162.278 30.9684 161.953 30.2216C161.628 29.4749 161.152 28.8032 160.556 28.2483C159.96 27.6934 159.256 27.2673 158.488 26.9965C157.719 26.7257 156.904 26.6161 156.091 26.6745V26.6745ZM156.091 35.8199H152.113V29.3267H156.152C156.581 29.3267 157.005 29.411 157.401 29.575C157.796 29.7389 158.156 29.9791 158.459 30.282C158.762 30.5849 159.002 30.9445 159.166 31.3403C159.33 31.736 159.414 32.1602 159.414 32.5885C159.414 33.0169 159.33 33.441 159.166 33.8368C159.002 34.2325 158.762 34.5921 158.459 34.895C158.156 35.1979 157.796 35.4382 157.401 35.6021C157.005 35.766 156.581 35.8504 156.152 35.8504L156.091 35.8199ZM173.681 33.0915C172.643 33.0275 171.609 33.2692 170.707 33.7866C169.805 34.304 169.074 35.0745 168.605 36.0028L171.12 37.0545C171.375 36.5964 171.756 36.2216 172.218 35.9754C172.681 35.7293 173.205 35.6223 173.727 35.6675C174.089 35.6252 174.455 35.6554 174.805 35.7564C175.155 35.8573 175.482 36.027 175.766 36.2554C176.049 36.4838 176.285 36.7665 176.458 37.0869C176.632 37.4073 176.739 37.759 176.775 38.1215V38.3044C175.859 37.8226 174.839 37.5715 173.803 37.5728C171.09 37.5728 168.316 39.097 168.316 41.8711C168.343 42.4608 168.488 43.039 168.742 43.5715C168.997 44.104 169.356 44.5798 169.798 44.9708C170.241 45.3618 170.757 45.66 171.316 45.8476C171.876 46.0351 172.468 46.1083 173.056 46.0628C173.772 46.1023 174.484 45.951 175.122 45.6242C175.759 45.2974 176.298 44.807 176.684 44.2032H176.775V45.7274H179.519V38.3959C179.519 35.0578 176.989 33.122 173.742 33.122L173.681 33.0915ZM173.331 43.5325C172.401 43.5325 171.105 43.06 171.105 41.9169C171.105 40.3926 172.721 39.8744 174.154 39.8744C175.059 39.852 175.954 40.0731 176.745 40.5146C176.649 41.3423 176.257 42.1073 175.64 42.6679C175.024 43.2284 174.225 43.5464 173.392 43.563L173.331 43.5325ZM189.518 33.5336L186.256 41.7949H186.165L182.781 33.5336H179.732L184.808 45.0873L181.912 51.5043H184.884L192.688 33.5336H189.518ZM163.911 45.7274H166.746V26.6745H163.911V45.7274Z" fill="white"/>
<path d="M16.8226 11.4929C16.3203 12.0868 16.064 12.8502 16.1062 13.6269V47.343C16.0543 48.1209 16.3118 48.8879 16.8226 49.4769L16.9293 49.5988L35.8146 30.7136V30.2563L16.9293 11.3862L16.8226 11.4929Z" fill="url(#paint0_linear_4188_19209)"/>
<path d="M42.0619 37.0084L35.8125 30.7133V30.256L42.0619 23.9609L42.199 24.0524L49.6831 28.2898C51.817 29.4939 51.817 31.4754 49.6831 32.6948L42.2295 36.9322L42.0619 37.0084Z" fill="url(#paint1_linear_4188_19209)"/>
<path d="M42.2446 36.9171L35.8123 30.4849L16.8203 49.4769C17.251 49.8602 17.8023 50.0808 18.3786 50.1003C18.9549 50.1198 19.5199 49.937 19.9755 49.5835L42.2446 36.9171" fill="url(#paint2_linear_4188_19209)"/>
<path d="M42.2446 24.0526L19.9755 11.4015C19.5228 11.0431 18.9583 10.8559 18.3812 10.8726C17.8042 10.8893 17.2515 11.109 16.8203 11.4929L35.8123 30.4849L42.2446 24.0526Z" fill="url(#paint3_linear_4188_19209)"/>
<path opacity="0.2" d="M42.0617 36.7798L19.9755 49.3547C19.5364 49.6861 19.0013 49.8654 18.4512 49.8654C17.9012 49.8654 17.3661 49.6861 16.927 49.3547V49.3547L16.8203 49.4614L16.927 49.5834C17.3661 49.9147 17.9012 50.094 18.4512 50.094C19.0013 50.094 19.5364 49.9147 19.9755 49.5834L42.2446 36.917L42.0617 36.7798Z" fill="black"/>
<path opacity="0.12" d="M16.82 49.2634C16.3304 48.6589 16.0905 47.89 16.1494 47.1143V47.3429C16.0975 48.1208 16.355 48.8878 16.8658 49.4768L16.9725 49.3701L16.82 49.2634Z" fill="black"/>
<path opacity="0.12" d="M49.6837 32.4664L42.0625 36.78L42.1997 36.9171L49.6837 32.6798C50.1255 32.493 50.5087 32.1905 50.793 31.8042C51.0774 31.418 51.2523 30.9622 51.2994 30.4849C51.2041 30.9186 51.0082 31.3239 50.7276 31.6681C50.4469 32.0123 50.0894 32.2857 49.6837 32.4664Z" fill="black"/>
<path opacity="0.25" d="M19.977 11.615L49.6844 28.5035C50.0901 28.6842 50.4477 28.9576 50.7283 29.3018C51.0089 29.646 51.2048 30.0513 51.3001 30.485C51.253 30.0077 51.0781 29.5519 50.7937 29.1656C50.5094 28.7794 50.1262 28.4769 49.6844 28.2901L19.977 11.4016C17.8583 10.1822 16.1055 11.1882 16.1055 13.6269V13.8556C16.1512 11.4168 17.8583 10.4108 19.977 11.615Z" fill="white"/>
<path d="M65.0932 21.7506H63.9805V18.7022H64.9255C65.3507 18.2406 65.6704 17.692 65.8626 17.0946C66.0547 16.4971 66.1146 15.8651 66.0382 15.2421V10.6694H72.1351V18.6869H73.1564V21.7354H72.0284V19.8149H65.0932V21.7506ZM67.2118 15.2421C67.2799 16.4665 66.9771 17.683 66.343 18.7326H70.9157V11.7974H67.2118V15.2421Z" fill="white" stroke="white" stroke-width="0.288386" stroke-miterlimit="10"/>
<path d="M82.3158 18.6263C81.8769 19.0664 81.3554 19.4156 80.7813 19.6539C80.2072 19.8922 79.5917 20.0148 78.9701 20.0148C78.3485 20.0148 77.733 19.8922 77.1589 19.6539C76.5848 19.4156 76.0633 19.0664 75.6244 18.6263C74.7524 17.7156 74.2656 16.5034 74.2656 15.2425C74.2656 13.9816 74.7524 12.7694 75.6244 11.8587C76.0633 11.4186 76.5848 11.0694 77.1589 10.8311C77.733 10.5929 78.3485 10.4702 78.9701 10.4702C79.5917 10.4702 80.2072 10.5929 80.7813 10.8311C81.3554 11.0694 81.8769 11.4186 82.3158 11.8587C82.7561 12.3038 83.103 12.8324 83.336 13.4136C83.5689 13.9947 83.6833 14.6165 83.6724 15.2425C83.6904 15.8694 83.5793 16.4933 83.3459 17.0755C83.1125 17.6576 82.7619 18.1855 82.3158 18.6263V18.6263ZM76.478 17.8642C76.7991 18.1978 77.1854 18.4619 77.6127 18.6401C78.0401 18.8184 78.4995 18.9071 78.9625 18.9007C79.4259 18.9099 79.8861 18.8224 80.3138 18.644C80.7416 18.4656 81.1275 18.2 81.447 17.8642C82.1047 17.1495 82.4697 16.2138 82.4697 15.2425C82.4697 14.2713 82.1047 13.3355 81.447 12.6208C81.1275 12.285 80.7416 12.0195 80.3138 11.841C79.8861 11.6626 79.4259 11.5752 78.9625 11.5843C78.4995 11.5779 78.0401 11.6666 77.6127 11.8449C77.1854 12.0232 76.7991 12.2873 76.478 12.6208C75.8299 13.3403 75.4713 14.2742 75.4713 15.2425C75.4713 16.2108 75.8299 17.1447 76.478 17.8642Z" fill="white" stroke="white" stroke-width="0.288386" stroke-miterlimit="10"/>
<path d="M89.5878 20.0128C88.971 20.0225 88.3587 19.9073 87.7877 19.6742C87.2166 19.4411 86.6987 19.0948 86.2649 18.6563C85.3854 17.7372 84.8945 16.5141 84.8945 15.242C84.8945 13.9699 85.3854 12.7468 86.2649 11.8277C86.7058 11.3816 87.2337 11.031 87.8158 10.7976C88.3979 10.5642 89.0218 10.4531 89.6487 10.4711C90.2868 10.4531 90.9206 10.581 91.5018 10.8452C92.0829 11.1093 92.5961 11.5027 93.002 11.9954L92.1942 12.788C91.8947 12.403 91.5073 12.0954 91.0644 11.8912C90.6214 11.687 90.136 11.592 89.6487 11.6143C89.1795 11.6023 88.7129 11.6868 88.2777 11.8625C87.8425 12.0381 87.4479 12.3012 87.1185 12.6355C86.4619 13.3568 86.0981 14.2971 86.0981 15.2725C86.0981 16.2478 86.4619 17.1881 87.1185 17.9094C87.4479 18.2437 87.8425 18.5068 88.2777 18.6825C88.7129 18.8581 89.1795 18.9426 89.6487 18.9306C90.1725 18.9158 90.6866 18.7866 91.1553 18.5523C91.6239 18.318 92.0357 17.9841 92.3619 17.5741L93.185 18.3819C92.7674 18.8823 92.2477 19.2877 91.6607 19.5708C91.0123 19.8737 90.3033 20.0249 89.5878 20.0128Z" fill="white" stroke="white" stroke-width="0.288386" stroke-miterlimit="10"/>
<path d="M97.9707 19.8149H96.797V11.7974H94.2363V10.6694H100.516V11.7974H97.9707V19.8149Z" fill="white" stroke="white" stroke-width="0.288386" stroke-miterlimit="10"/>
<path d="M108.595 10.6694L105.135 18.3821C105.051 18.6913 104.901 18.9786 104.695 19.224C104.489 19.4695 104.232 19.6672 103.942 19.8035C103.652 19.9398 103.336 20.0114 103.016 20.0133C102.695 20.0153 102.378 19.9476 102.087 19.8149L102.392 18.7326C102.578 18.8375 102.787 18.895 103.001 18.9003C103.227 18.9116 103.45 18.8531 103.641 18.7326C103.827 18.5786 103.968 18.379 104.053 18.1534L104.388 17.4218L101.34 10.6694H102.727L104.983 15.9128L107.208 10.6694H108.595Z" fill="white" stroke="white" stroke-width="0.288386" stroke-miterlimit="10"/>
<path d="M109.92 19.8149V10.6694H116.535V19.8149H115.361V11.7974H111.094V19.8149H109.92Z" fill="white" stroke="white" stroke-width="0.288386" stroke-miterlimit="10"/>
<path d="M118.625 19.8149V10.6694H119.799V14.5867H124.371V10.6694H125.56V19.8149H124.371V15.6842H119.799V19.8149H118.625Z" fill="white" stroke="white" stroke-width="0.288386" stroke-miterlimit="10"/>
<path d="M135.134 18.6263C134.694 19.0669 134.171 19.4164 133.595 19.6549C133.02 19.8934 132.403 20.0161 131.78 20.0161C131.158 20.0161 130.541 19.8934 129.965 19.6549C129.39 19.4164 128.867 19.0669 128.427 18.6263C127.555 17.7156 127.068 16.5034 127.068 15.2425C127.068 13.9816 127.555 12.7694 128.427 11.8587C128.866 11.4186 129.388 11.0694 129.962 10.8311C130.536 10.5929 131.151 10.4702 131.773 10.4702C132.394 10.4702 133.01 10.5929 133.584 10.8311C134.158 11.0694 134.68 11.4186 135.119 11.8587C135.984 12.773 136.466 13.9838 136.466 15.2425C136.466 16.5012 135.984 17.7121 135.119 18.6263H135.134ZM129.296 17.8642C129.615 18.2 130.001 18.4656 130.429 18.644C130.857 18.8224 131.317 18.9099 131.78 18.9007C132.243 18.9071 132.703 18.8184 133.13 18.6401C133.558 18.4619 133.944 18.1978 134.265 17.8642C134.913 17.1447 135.272 16.2108 135.272 15.2425C135.272 14.2742 134.913 13.3403 134.265 12.6208C133.944 12.2873 133.558 12.0232 133.13 11.8449C132.703 11.6666 132.243 11.5779 131.78 11.5843C131.317 11.5752 130.857 11.6626 130.429 11.841C130.001 12.0195 129.615 12.285 129.296 12.6208C128.638 13.3355 128.273 14.2713 128.273 15.2425C128.273 16.2138 128.638 17.1495 129.296 17.8642V17.8642Z" fill="white" stroke="white" stroke-width="0.288386" stroke-miterlimit="10"/>
<path d="M141.277 19.815V10.6696H144.585C145.271 10.6627 145.934 10.9128 146.445 11.3707C146.699 11.5918 146.902 11.8661 147.039 12.1742C147.176 12.4824 147.244 12.8169 147.237 13.1541C147.241 13.5647 147.124 13.9674 146.902 14.3125C146.677 14.6398 146.366 14.8983 146.002 15.0594V15.0594C146.443 15.2098 146.829 15.4853 147.115 15.852C147.395 16.2255 147.545 16.6806 147.542 17.1476C147.55 17.499 147.48 17.8477 147.338 18.1691C147.196 18.4905 146.984 18.7767 146.719 19.0071C146.19 19.4994 145.49 19.7672 144.768 19.754L141.277 19.815ZM142.451 14.5869H144.585C144.785 14.5984 144.984 14.5646 145.169 14.4881C145.354 14.4116 145.519 14.2942 145.652 14.1448C145.91 13.8916 146.058 13.5464 146.063 13.1846C146.078 12.8216 145.952 12.4669 145.713 12.1938C145.585 12.0517 145.427 11.9397 145.25 11.8659C145.074 11.7921 144.883 11.7583 144.692 11.767H142.497L142.451 14.5869ZM142.451 18.6871H144.829C145.035 18.694 145.241 18.6552 145.43 18.5735C145.62 18.4919 145.789 18.3693 145.926 18.2145C146.189 17.9334 146.336 17.5631 146.338 17.1781C146.329 16.7962 146.176 16.4317 145.911 16.1568C145.764 16.0025 145.586 15.8808 145.39 15.7994C145.193 15.718 144.981 15.6788 144.768 15.6843H142.451V18.6871Z" fill="white" stroke="white" stroke-width="0.288386" stroke-miterlimit="10"/>
</g>
<defs>
<linearGradient id="paint0_linear_4188_19209" x1="34.1379" y1="13.2763" x2="8.5612" y2="38.853" gradientUnits="userSpaceOnUse">
<stop stop-color="#00A0FF"/>
<stop offset="0.01" stop-color="#00A1FF"/>
<stop offset="0.26" stop-color="#00BEFF"/>
<stop offset="0.51" stop-color="#00D2FF"/>
<stop offset="0.76" stop-color="#00DFFF"/>
<stop offset="1" stop-color="#00E3FF"/>
</linearGradient>
<linearGradient id="paint1_linear_4188_19209" x1="52.4724" y1="30.4847" x2="15.6011" y2="30.4847" gradientUnits="userSpaceOnUse">
<stop stop-color="#FFE000"/>
<stop offset="0.41" stop-color="#FFBD00"/>
<stop offset="0.78" stop-color="#FFA500"/>
<stop offset="1" stop-color="#FF9C00"/>
</linearGradient>
<linearGradient id="paint2_linear_4188_19209" x1="38.7541" y1="33.9906" x2="4.06244" y2="68.667" gradientUnits="userSpaceOnUse">
<stop stop-color="#FF3A44"/>
<stop offset="1" stop-color="#C31162"/>
</linearGradient>
<linearGradient id="paint3_linear_4188_19209" x1="12.0342" y1="0.274548" x2="27.5205" y2="15.7608" gradientUnits="userSpaceOnUse">
<stop stop-color="#32A071"/>
<stop offset="0.07" stop-color="#2DA771"/>
<stop offset="0.48" stop-color="#15CF74"/>
<stop offset="0.8" stop-color="#06E775"/>
<stop offset="1" stop-color="#00F076"/>
</linearGradient>
<clipPath id="clip0_4188_19209">
<rect width="205.772" height="60.9695" fill="white" transform="translate(0.908203)"/>
</clipPath>
</defs>
</svg>
