<svg width="24" height="24" viewBox="0 0 24 24" fill="none" xmlns="http://www.w3.org/2000/svg">
<path d="M12 2C6.44444 2 2 6.44444 2 12C2 17.5556 6.44444 22 12 22C17.5556 22 22 17.5556 22 12C22 6.44444 17.5556 2 12 2ZM12 9.77778C13.2222 9.77778 14.2222 10.7778 14.2222 12C14.2222 13.2222 13.2222 14.2222 12 14.2222C10.7778 14.2222 9.77778 13.2222 9.77778 12C9.77778 10.7778 10.7778 9.77778 12 9.77778ZM15.1111 7.55556C15.1111 6.77778 15.7778 6.22222 16.4444 6.22222C17.1111 6.22222 17.7778 6.88889 17.7778 7.55556C17.7778 8.22222 17.2222 8.88889 16.4444 8.88889C15.6667 8.88889 15.1111 8.33333 15.1111 7.55556ZM12 19.7778C7.66667 19.7778 4.22222 16.3333 4.22222 12H7.55556C7.55556 14.4444 9.55556 16.4444 12 16.4444C14.4444 16.4444 16.4444 14.4444 16.4444 12H19.7778C19.7778 16.3333 16.3333 19.7778 12 19.7778Z" fill="#0B0C0D"/>
</svg>
