<svg width="16" height="16" viewBox="0 0 16 16" fill="none" xmlns="http://www.w3.org/2000/svg">
<path d="M10.0831 8.00002C10.0831 6.85314 9.14719 5.91721 8.00032 5.91721C6.85345 5.91721 5.91751 6.85314 5.91751 8.00002C5.91751 9.1469 6.85345 10.0828 8.00032 10.0828C9.14719 10.0828 10.0831 9.1469 10.0831 8.00002ZM8.00032 14.2469C8.86282 14.2469 9.71751 14.2547 10.5784 14.2063C11.5784 14.1578 12.4659 13.9297 13.1972 13.1985C13.93 12.4657 14.1566 11.5797 14.205 10.5797C14.2534 9.71721 14.2456 8.86252 14.2456 8.00158C14.2456 7.13908 14.2534 6.28439 14.205 5.42345C14.1566 4.42345 13.9284 3.53595 13.1972 2.8047C12.4644 2.07189 11.5784 1.84533 10.5784 1.79689C9.71594 1.74845 8.86126 1.75626 8.00032 1.75626C7.13938 1.75626 6.28313 1.74845 5.4222 1.79689C4.4222 1.84533 3.5347 2.07345 2.80345 2.8047C2.07064 3.53751 1.84407 4.42345 1.79564 5.42345C1.7472 6.28596 1.75501 7.14064 1.75501 8.00158C1.75501 8.86408 1.7472 9.71877 1.79564 10.5797C1.84407 11.5797 2.0722 12.4672 2.80345 13.1985C3.53626 13.9313 4.4222 14.1578 5.4222 14.2063C6.28313 14.2563 7.13782 14.2469 8.00032 14.2469ZM4.79563 8.00002C4.79564 6.22658 6.22688 4.79533 8.00032 4.79533C9.77376 4.79533 11.205 6.22658 11.205 8.00002C11.205 9.77346 9.77376 11.2047 8.00032 11.2047C6.22688 11.2047 4.79563 9.77346 4.79563 8.00002ZM10.5878 11.336C10.5878 10.9219 10.9222 10.5875 11.3363 10.5875C11.7503 10.5875 12.0847 10.9219 12.0847 11.336C12.0847 11.75 11.7503 12.0844 11.3363 12.0844C11.2379 12.0845 11.1406 12.0652 11.0497 12.0277C10.9588 11.9901 10.8763 11.935 10.8068 11.8655C10.7372 11.7959 10.6821 11.7134 10.6445 11.6225C10.607 11.5317 10.5877 11.4343 10.5878 11.336Z" fill="white"/>
</svg>
