<svg width="16" height="16" viewBox="0 0 16 16" fill="none" xmlns="http://www.w3.org/2000/svg">
<path d="M7.99594 1.3335C4.31594 1.3335 1.33594 4.32016 1.33594 8.00016C1.33594 11.6802 4.31594 14.6668 7.99594 14.6668C11.6826 14.6668 14.6693 11.6802 14.6693 8.00016C14.6693 4.32016 11.6826 1.3335 7.99594 1.3335ZM12.6159 5.3335H10.6493C10.4406 4.5078 10.1317 3.71076 9.72927 2.96016C10.9453 3.37883 11.9701 4.22131 12.6159 5.3335ZM8.0026 2.6935C8.55594 3.4935 8.98927 4.38016 9.27594 5.3335H6.72927C7.01594 4.38016 7.44927 3.4935 8.0026 2.6935ZM2.8426 9.3335C2.73594 8.90683 2.66927 8.46016 2.66927 8.00016C2.66927 7.54016 2.73594 7.0935 2.8426 6.66683H5.09594C5.0426 7.10683 5.0026 7.54683 5.0026 8.00016C5.0026 8.4535 5.0426 8.8935 5.09594 9.3335H2.8426ZM3.38927 10.6668H5.35594C5.56927 11.5002 5.87594 12.3002 6.27594 13.0402C5.05858 12.6238 4.03316 11.7807 3.38927 10.6668ZM5.35594 5.3335H3.38927C4.03316 4.21961 5.05858 3.37654 6.27594 2.96016C5.87356 3.71076 5.56459 4.5078 5.35594 5.3335ZM8.0026 13.3068C7.44927 12.5068 7.01594 11.6202 6.72927 10.6668H9.27594C8.98927 11.6202 8.55594 12.5068 8.0026 13.3068ZM9.5626 9.3335H6.4426C6.3826 8.8935 6.33594 8.4535 6.33594 8.00016C6.33594 7.54683 6.3826 7.10016 6.4426 6.66683H9.5626C9.6226 7.10016 9.66927 7.54683 9.66927 8.00016C9.66927 8.4535 9.6226 8.8935 9.5626 9.3335ZM9.72927 13.0402C10.1293 12.3002 10.4359 11.5002 10.6493 10.6668H12.6159C11.9701 11.779 10.9453 12.6215 9.72927 13.0402ZM10.9093 9.3335C10.9626 8.8935 11.0026 8.4535 11.0026 8.00016C11.0026 7.54683 10.9626 7.10683 10.9093 6.66683H13.1626C13.2693 7.0935 13.3359 7.54016 13.3359 8.00016C13.3359 8.46016 13.2693 8.90683 13.1626 9.3335H10.9093Z" fill="#05141F"/>
</svg>
