<svg width="16" height="16" viewBox="0 0 16 16" fill="none" xmlns="http://www.w3.org/2000/svg">
<path d="M11.8127 10.125C11.2422 10.1248 10.6944 10.3482 10.2867 10.7472L6.31266 8.51279C6.39432 8.1758 6.39432 7.82417 6.31266 7.48717L10.2855 5.2528C10.6566 5.61382 11.1442 5.83095 11.6608 5.86532C12.1774 5.89969 12.6894 5.74906 13.1051 5.44039C13.5208 5.13171 13.8131 4.68516 13.9296 4.18067C14.0461 3.67617 13.9792 3.14668 13.741 2.68699C13.5027 2.22729 13.1086 1.8674 12.6292 1.67176C12.1499 1.47611 11.6165 1.45747 11.1246 1.61919C10.6328 1.7809 10.2145 2.11241 9.94474 2.55436C9.67498 2.99631 9.57133 3.51984 9.65235 4.03123L5.58578 6.31873C5.26637 6.05261 4.87773 5.88302 4.46539 5.82983C4.05305 5.77665 3.6341 5.84207 3.25761 6.01843C2.88112 6.19479 2.56268 6.47479 2.3396 6.82563C2.11653 7.17646 1.99805 7.5836 1.99805 7.99936C1.99805 8.41511 2.11653 8.82225 2.3396 9.17309C2.56268 9.52392 2.88112 9.80392 3.25761 9.98028C3.6341 10.1566 4.05305 10.2221 4.46539 10.1689C4.87773 10.1157 5.26637 9.94611 5.58578 9.67998L9.65235 11.9687C9.58205 12.4105 9.6489 12.8633 9.84388 13.2659C10.0389 13.6685 10.3526 14.0017 10.7428 14.2205C11.133 14.4393 11.5809 14.5332 12.0261 14.4895C12.4713 14.4459 12.8925 14.2668 13.2328 13.9764C13.573 13.686 13.8161 13.2982 13.9292 12.8654C14.0422 12.4325 14.0199 11.9754 13.8651 11.5557C13.7103 11.136 13.4306 10.7738 13.0636 10.518C12.6966 10.2621 12.26 10.125 11.8127 10.125Z" fill="white"/>
</svg>
