<svg width="20" height="20" viewBox="0 0 20 20" fill="none" xmlns="http://www.w3.org/2000/svg">
<path d="M9.9974 1.6665C11.3235 1.6665 12.5952 2.19329 13.5329 3.13097C14.4706 4.06865 14.9974 5.34042 14.9974 6.6665V7.49984H18.3307V9.1665H17.3582L16.7274 16.7357C16.7101 16.9439 16.6151 17.138 16.4614 17.2796C16.3076 17.4211 16.1064 17.4997 15.8974 17.4998H4.0974C3.88843 17.4997 3.68714 17.4211 3.53341 17.2796C3.37968 17.138 3.28474 16.9439 3.2674 16.7357L2.63573 9.1665H1.66406V7.49984H4.9974V6.6665C4.9974 5.34042 5.52418 4.06865 6.46186 3.13097C7.39954 2.19329 8.67131 1.6665 9.9974 1.6665ZM15.6857 9.1665H4.30823L4.86406 15.8332H15.1299L15.6857 9.1665ZM10.8307 10.8332V14.1665H9.16406V10.8332H10.8307ZM7.4974 10.8332V14.1665H5.83073V10.8332H7.4974ZM14.1641 10.8332V14.1665H12.4974V10.8332H14.1641ZM9.9974 3.33317C9.14219 3.33317 8.31971 3.66187 7.70005 4.25127C7.0804 4.84068 6.71099 5.6457 6.66823 6.49984L6.66406 6.6665V7.49984H13.3307V6.6665C13.3307 5.8113 13.002 4.98881 12.4126 4.36916C11.8232 3.74951 11.0182 3.3801 10.1641 3.33734L9.9974 3.33317Z" fill="#05141F"/>
</svg>
