<svg width="16" height="16" viewBox="0 0 16 16" fill="none" xmlns="http://www.w3.org/2000/svg">
<path d="M4.66797 5.33333C4.66797 4.44928 5.01916 3.60143 5.64428 2.97631C6.2694 2.35119 7.11725 2 8.0013 2C8.88536 2 9.7332 2.35119 10.3583 2.97631C10.9834 3.60143 11.3346 4.44928 11.3346 5.33333C11.3346 6.21739 10.9834 7.06523 10.3583 7.69036C9.7332 8.31548 8.88536 8.66667 8.0013 8.66667C7.11725 8.66667 6.2694 8.31548 5.64428 7.69036C5.01916 7.06523 4.66797 6.21739 4.66797 5.33333ZM8.0013 7.33333C8.53174 7.33333 9.04044 7.12262 9.41552 6.74755C9.79059 6.37247 10.0013 5.86377 10.0013 5.33333C10.0013 4.8029 9.79059 4.29419 9.41552 3.91912C9.04044 3.54405 8.53174 3.33333 8.0013 3.33333C7.47087 3.33333 6.96216 3.54405 6.58709 3.91912C6.21202 4.29419 6.0013 4.8029 6.0013 5.33333C6.0013 5.86377 6.21202 6.37247 6.58709 6.74755C6.96216 7.12262 7.47087 7.33333 8.0013 7.33333ZM4.22997 10.8953C3.73473 11.3906 3.34189 11.9786 3.07388 12.6256C2.80587 13.2727 2.66794 13.9663 2.66797 14.6667H4.0013C4.0013 13.6058 4.42273 12.5884 5.17288 11.8382C5.92302 11.0881 6.94044 10.6667 8.0013 10.6667C9.06217 10.6667 10.0796 11.0881 10.8297 11.8382C11.5799 12.5884 12.0013 13.6058 12.0013 14.6667H13.3346C13.3347 13.6118 13.0219 12.5806 12.4359 11.7035C11.8498 10.8264 11.0169 10.1428 10.0423 9.73913C9.06774 9.33544 7.99536 9.22982 6.96077 9.43563C5.92618 9.64143 4.97585 10.1494 4.22997 10.8953Z" fill="white"/>
</svg>
